P3
# Created by GIMP version 2.10.30 PNM plug-in
64 64
255
91
139
169
142
185
209
132
171
193
138
179
203
139
181
202
149
192
211
151
191
212
140
184
202
143
187
207
140
183
205
141
182
206
141
182
206
135
176
202
138
178
201
124
161
185
122
157
185
135
173
200
133
170
194
135
173
200
132
172
197
142
188
209
139
179
200
142
183
207
145
184
203
156
193
213
151
191
209
144
185
208
143
186
208
142
184
205
139
180
198
135
177
198
143
189
209
142
186
205
141
183
202
140
183
205
144
185
204
157
195
215
155
196
215
151
194
215
148
190
209
125
166
190
135
177
198
139
181
202
134
176
197
138
176
201
129
167
192
134
175
201
144
184
207
134
174
199
136
174
201
136
177
200
131
172
196
143
186
208
142
185
207
138
179
205
137
177
198
136
176
201
135
175
200
139
176
202
137
177
200
134
174
199
144
181
207
138
178
203
177
204
222
59
97
127
104
153
183
104
158
186
111
166
196
119
171
198
114
169
195
126
179
205
110
166
193
107
162
188
115
171
198
110
167
193
105
158
189
99
154
183
103
155
185
103
155
185
94
143
176
110
167
193
103
152
183
98
146
181
98
149
181
105
159
186
111
166
194
121
171
198
122
169
198
115
162
194
105
158
188
99
150
182
98
148
177
99
148
177
105
160
189
117
172
198
109
165
190
105
164
190
107
163
188
119
175
200
123
177
200
116
172
197
111
166
192
107
163
189
106
158
190
108
164
189
104
161
187
99
155
181
103
158
188
103
153
187
106
159
189
118
173
199
115
173
198
107
167
190
110
166
193
114
169
199
98
147
180
105
160
188
108
155
188
100
148
184
104
151
186
97
139
177
101
150
183
106
155
191
100
152
181
101
150
181
106
159
189
102
155
185
169
199
218
60
98
126
93
144
176
111
164
194
113
162
192
119
169
198
117
170
196
111
166
192
115
170
196
110
168
193
111
166
192
105
161
187
104
157
179
106
159
184
94
148
174
102
157
186
99
149
180
103
155
180
96
148
178
108
161
191
111
161
192
116
168
193
127
179
201
135
187
209
119
171
198
90
146
176
96
144
177
102
156
181
92
138
170
95
140
169
96
142
172
104
156
183
103
160
187
102
160
185
109
168
194
104
159
185
116
171
197
111
167
194
99
156
184
112
165
197
102
158
185
114
170
195
108
164
191
105
160
188
94
143
179
106
159
192
113
167
194
109
164
188
118
176
199
117
175
198
103
161
186
104
160
186
103
153
185
95
141
178
98
144
181
106
156
190
101
145
181
113
160
195
108
153
188
100
150
184
102
156
189
97
147
179
104
157
188
96
149
180
176
206
225
61
99
129
106
152
190
101
148
183
102
149
182
100
152
184
102
153
185
97
148
180
105
161
187
112
169
194
103
157
178
93
143
167
98
149
176
98
154
180
109
165
191
99
152
177
97
145
175
102
152
179
106
159
189
123
171
200
119
166
195
118
169
194
129
180
205
104
162
187
98
154
178
101
154
181
105
154
183
93
139
169
96
145
174
107
158
185
100
152
177
97
150
180
104
160
186
111
168
194
108
164
191
104
160
187
112
167
193
104
159
187
108
161
192
102
155
185
105
160
190
109
162
192
103
156
186
101
154
186
106
161
190
99
154
182
109
163
192
120
175
199
111
171
194
111
167
192
107
167
190
108
165
190
104
161
188
95
145
176
95
138
176
109
158
191
97
144
182
103
150
185
101
148
180
111
161
192
111
161
192
108
161
191
102
155
186
101
151
182
158
182
201
56
91
120
100
150
183
96
141
175
103
154
186
110
159
183
91
143
167
70
113
139
64
110
133
68
113
135
71
116
138
76
122
145
80
127
153
74
123
147
81
128
154
71
114
143
67
113
136
69
110
141
77
124
152
77
123
148
82
128
156
74
122
148
74
119
146
67
114
139
71
120
142
72
120
143
70
112
141
74
118
143
76
127
149
85
133
160
80
127
151
78
123
151
79
124
152
73
121
148
74
121
149
83
132
159
65
113
141
76
122
152
78
125
150
78
126
153
79
125
155
69
115
143
80
127
153
77
124
150
75
123
149
80
129
153
85
132
158
83
129
154
76
128
151
77
127
152
79
128
152
71
120
144
79
128
152
63
106
137
73
114
144
70
111
142
64
101
135
73
112
145
74
117
146
69
115
143
84
132
161
103
156
186
106
156
189
100
143
181
164
191
209
49
83
115
95
145
176
96
146
175
102
155
182
132
176
195
62
109
129
33
73
94
33
73
94
35
75
96
39
77
100
45
86
106
37
77
100
33
73
96
34
75
97
32
72
93
29
67
90
32
70
93
30
68
91
29
68
88
28
63
85
31
64
88
27
66
86
38
78
97
33
73
94
31
71
92
34
73
97
29
72
90
34
76
97
33
77
96
32
76
95
30
70
91
23
56
75
67
109
132
28
66
89
25
63
86
34
68
95
27
65
88
34
78
97
32
74
95
38
76
101
32
70
93
33
72
96
29
67
90
28
66
89
27
67
88
39
78
102
32
73
95
32
75
96
35
79
98
39
81
102
34
76
97
36
78
99
31
71
92
31
68
90
36
69
97
32
62
89
19
52
76
31
68
90
19
50
71
59
97
128
93
136
174
105
156
188
104
161
189
174
206
221
52
90
120
112
167
195
108
163
189
109
167
190
176
208
223
135
162
176
54
102
129
47
97
122
55
103
128
51
101
126
56
104
131
42
92
117
45
95
120
46
96
121
50
98
123
58
109
131
61
109
134
44
95
121
48
96
121
47
91
117
43
86
113
44
88
114
46
94
119
39
87
111
50
98
122
49
99
124
44
92
119
49
99
124
50
98
123
50
104
125
60
111
133
27
63
82
144
172
183
51
99
124
49
97
124
58
106
131
47
95
120
48
98
123
53
103
126
52
96
124
50
98
125
41
89
114
48
96
121
42
90
115
53
103
128
46
96
121
49
99
124
48
98
123
58
108
131
49
102
124
44
94
119
46
94
119
51
99
124
48
94
123
43
87
115
48
92
120
47
95
122
48
94
120
28
56
78
54
87
118
86
131
165
97
147
178
104
161
189
166
198
213
63
106
132
115
171
196
119
174
198
116
171
197
174
205
219
139
165
178
41
89
116
44
90
116
47
94
120
47
93
119
54
101
127
53
101
128
55
105
130
41
89
114
45
93
118
47
97
120
47
95
122
40
89
112
51
99
123
41
87
113
48
92
118
38
81
108
44
91
117
50
98
122
50
98
123
56
104
129
51
101
126
41
91
116
48
96
121
43
94
118
60
111
133
32
67
86
151
177
190
50
99
123
51
99
126
55
103
128
53
101
126
50
100
123
54
102
127
45
89
117
54
102
129
56
104
129
45
95
120
46
94
119
49
99
124
45
93
118
50
101
123
47
97
120
55
106
132
51
101
124
60
110
133
60
108
135
48
95
121
44
89
117
45
85
113
43
89
115
45
93
118
41
86
114
20
47
70
60
95
124
96
145
175
98
154
180
104
162
185
174
206
221
63
106
130
102
157
183
102
160
185
102
156
184
161
190
206
141
167
180
52
100
127
50
97
123
46
90
116
48
94
120
53
98
121
44
92
117
52
102
127
50
102
125
53
103
126
46
96
119
52
100
127
41
88
109
42
89
110
52
102
127
43
90
116
47
94
120
42
87
115
49
96
122
45
95
120
50
101
125
52
103
127
49
97
122
52
100
125
52
103
125
48
99
121
22
58
77
138
165
179
51
104
126
51
101
124
48
96
121
60
113
135
56
107
131
50
96
125
45
90
118
51
101
124
53
101
126
39
88
111
46
96
119
41
91
116
47
98
120
54
104
129
47
97
120
44
94
119
48
98
121
46
93
119
54
102
129
46
94
121
43
88
116
38
82
110
53
100
126
46
90
118
45
86
117
23
53
75
54
95
122
107
162
191
106
162
189
107
164
190
168
198
215
61
105
130
101
156
184
104
161
189
108
162
189
165
197
214
143
168
184
48
96
123
49
97
124
53
98
126
48
94
120
47
97
120
92
130
147
100
139
157
98
137
155
100
139
157
103
142
160
94
135
153
91
127
144
89
127
142
97
136
154
98
136
155
97
135
154
95
129
152
91
125
146
92
128
149
98
136
155
91
129
148
96
134
151
100
139
157
103
141
160
98
137
155
36
81
104
151
174
188
100
138
157
98
134
153
95
132
154
93
132
150
91
128
150
93
127
148
90
129
147
98
137
157
99
140
156
92
130
145
93
134
150
90
129
147
93
134
152
96
137
155
93
129
150
102
141
159
95
132
154
90
127
149
92
130
149
97
135
154
116
142
162
105
137
157
52
95
125
43
84
115
48
95
121
27
62
81
66
108
135
105
161
188
104
160
187
109
161
191
165
195
212
55
98
122
108
165
191
107
162
190
118
176
199
175
207
222
133
160
174
60
110
135
51
101
124
47
93
122
49
90
114
101
151
177
150
193
210
156
198
217
147
191
210
153
197
215
141
184
205
140
181
205
137
181
200
140
187
205
148
191
210
143
184
203
140
183
204
140
181
205
135
172
196
143
181
206
132
170
195
136
176
197
143
186
208
144
188
206
145
189
207
140
184
204
179
209
222
89
141
168
142
187
206
150
193
214
145
188
207
155
196
217
139
182
206
135
177
198
144
188
206
141
185
203
143
190
208
137
180
202
137
183
203
151
194
213
151
196
215
143
188
210
137
177
205
131
171
194
142
185
209
142
183
207
129
167
192
130
167
193
172
198
215
134
161
176
44
90
114
50
98
123
53
101
126
21
56
75
54
95
122
104
158
184
104
155
184
103
158
187
163
190
208
52
95
119
117
175
200
110
165
195
118
171
201
179
209
226
147
174
188
51
104
126
39
87
114
41
88
114
20
54
75
57
101
126
109
170
194
111
167
194
107
162
188
107
162
188
115
171
196
107
164
190
101
156
185
115
168
198
128
183
204
106
166
189
108
166
190
101
155
178
96
147
174
105
158
189
106
158
189
96
147
179
112
162
193
115
167
194
113
168
194
107
163
190
168
198
215
61
101
128
107
162
190
105
161
186
113
165
192
116
169
199
104
160
185
108
164
191
108
163
189
108
162
189
111
165
193
108
161
192
109
164
190
111
167
194
108
161
191
106
155
188
102
154
186
103
158
188
96
148
180
107
157
190
100
150
183
98
148
181
175
205
222
141
169
180
45
94
117
52
102
127
53
101
128
28
62
83
59
97
125
105
154
184
106
157
184
104
151
186
174
199
219
55
95
124
102
159
187
108
164
189
104
160
187
171
202
216
144
169
185
43
92
115
40
88
113
48
94
120
19
54
73
59
101
126
106
162
187
113
170
196
108
164
191
111
167
194
104
160
187
101
158
184
97
153
179
111
166
194
107
162
190
106
162
187
108
166
191
109
165
187
105
159
185
108
164
190
107
160
190
103
156
186
116
163
195
114
166
193
92
147
177
103
157
183
164
192
207
51
91
115
98
150
174
109
165
191
110
163
189
113
165
194
101
156
186
96
149
179
109
164
192
105
159
187
95
145
176
89
142
172
97
150
183
107
159
189
105
156
191
102
154
186
103
159
189
107
163
190
105
157
188
103
155
190
103
151
186
102
144
185
173
202
220
136
161
177
44
92
117
43
93
116
45
90
118
34
67
88
62
103
130
94
145
177
102
151
187
109
154
191
170
197
217
52
95
121
107
159
194
120
178
201
103
159
186
172
202
219
146
172
185
54
100
126
51
99
124
43
91
116
19
54
73
54
98
123
106
163
190
105
161
185
112
170
195
118
174
199
105
163
190
100
157
183
106
162
186
99
156
181
106
158
185
102
154
184
109
164
192
110
164
191
104
160
185
114
167
197
110
162
193
106
156
189
118
168
199
98
146
182
93
143
172
95
143
173
175
203
218
54
94
120
102
157
186
115
167
196
112
164
189
108
162
191
101
154
186
106
161
192
103
155
187
100
153
184
102
154
184
99
153
181
110
163
193
106
159
189
106
159
189
105
157
189
104
159
187
104
160
185
108
161
191
100
154
181
101
154
185
105
153
189
167
192
212
138
163
179
45
92
118
51
99
126
47
91
119
19
53
74
53
94
123
107
153
190
103
155
186
111
164
190
164
191
209
64
107
131
101
153
188
105
163
188
98
153
181
169
200
214
138
164
177
52
102
125
48
98
123
42
89
115
26
61
80
59
99
126
98
154
180
105
160
186
107
162
186
110
166
193
103
161
186
106
160
186
99
153
179
98
156
178
102
153
180
99
155
181
113
170
196
100
155
184
105
160
190
113
168
196
110
160
193
106
157
192
103
155
185
96
146
180
98
153
182
103
160
188
170
200
217
56
96
123
111
161
188
124
172
201
113
165
190
111
166
194
103
157
185
114
171
199
103
158
184
105
160
190
97
147
180
107
157
189
115
165
196
108
160
189
110
165
191
105
158
188
100
153
183
102
155
185
113
170
196
102
157
187
107
159
189
103
156
188
169
198
216
135
156
174
36
79
106
47
91
119
48
93
121
18
51
72
56
96
124
102
147
182
103
157
190
95
147
179
174
201
219
67
107
136
96
154
181
109
167
190
100
149
178
167
198
212
138
167
179
55
106
128
52
100
125
52
100
127
30
67
84
60
101
125
97
154
180
118
174
199
113
168
192
117
175
200
112
168
195
108
163
191
105
157
182
101
153
178
98
153
182
108
165
193
109
164
188
102
159
185
105
157
188
108
155
187
116
162
193
113
159
190
107
154
186
109
158
190
113
164
192
128
181
207
170
200
214
60
105
127
114
170
195
110
165
191
112
165
191
105
161
188
102
159
187
101
155
182
110
165
189
102
157
187
98
148
179
97
150
182
106
156
187
103
153
186
101
153
185
101
151
183
101
154
185
102
159
187
103
156
186
103
155
186
103
156
188
111
164
194
165
194
212
137
159
174
43
80
113
40
81
110
49
95
121
20
53
74
56
96
124
94
138
177
101
153
183
103
156
189
174
204
221
58
97
123
108
165
190
101
153
183
104
155
182
166
200
213
145
173
184
49
99
122
48
96
123
48
96
121
18
53
72
59
103
128
109
165
192
117
175
200
109
166
188
113
169
194
103
162
188
116
172
197
95
151
177
101
155
181
106
160
187
107
159
188
108
158
187
111
164
190
111
160
190
118
165
194
125
172
202
119
166
196
116
164
193
108
158
191
109
160
188
108
162
191
176
209
223
62
106
131
111
167
194
112
168
193
109
166
194
113
170
196
108
166
193
109
164
192
105
160
186
98
149
183
98
148
179
106
157
192
105
157
187
97
150
182
90
133
169
97
143
178
102
151
182
99
154
184
103
160
188
111
164
196
108
161
191
104
159
189
165
190
210
135
156
174
43
78
113
50
91
120
48
92
118
24
56
76
50
88
118
96
147
179
94
142
178
101
152
186
161
191
208
51
91
118
109
166
192
97
149
179
106
162
186
169
201
216
145
170
186
44
92
116
45
89
117
41
89
111
19
54
73
56
99
123
123
175
200
114
167
193
114
167
193
110
166
191
114
174
197
112
167
193
112
168
195
105
161
186
111
166
192
112
165
195
113
168
192
103
156
182
111
163
190
107
156
186
106
155
187
100
153
186
105
155
188
103
160
186
109
166
194
107
163
190
163
196
208
60
105
127
109
167
190
102
160
183
96
150
176
99
156
183
108
165
193
114
169
195
106
162
188
101
154
185
97
147
180
102
154
186
103
154
186
97
143
180
101
151
182
105
155
184
96
147
181
98
147
178
96
149
176
99
153
179
115
171
195
109
162
189
158
183
203
140
160
175
49
86
119
43
89
115
45
90
118
27
60
81
57
95
125
111
158
196
95
144
180
93
135
176
174
198
217
52
95
119
100
155
181
106
161
191
104
160
185
170
202
217
144
172
183
46
94
119
47
93
119
49
98
121
27
62
81
62
105
129
118
172
195
106
161
187
109
165
192
105
161
186
113
168
196
106
162
189
113
169
196
106
162
187
104
159
187
105
155
187
111
166
192
119
176
198
111
163
192
102
149
184
100
148
183
98
148
181
101
152
184
110
165
191
104
165
189
117
177
200
167
202
216
58
105
125
117
175
198
107
167
190
104
161
187
102
159
185
112
167
195
111
166
192
105
161
186
98
154
180
105
158
189
102
155
186
107
160
192
101
153
185
96
149
181
104
157
189
104
157
188
95
147
177
100
154
180
96
152
178
104
160
184
98
154
180
167
193
210
132
156
169
36
75
106
43
87
115
43
90
116
33
66
87
58
95
123
101
147
184
102
145
181
95
134
169
168
191
209
48
88
115
103
159
186
106
163
191
109
163
191
171
201
218
139
166
180
51
101
123
52
99
125
56
107
131
32
69
86
67
110
134
117
172
198
108
164
189
103
159
184
103
159
186
103
159
184
117
173
198
114
170
195
105
160
186
110
167
193
118
168
199
111
164
192
110
166
193
112
165
195
105
155
189
109
155
192
94
137
175
104
160
186
119
177
200
117
175
198
106
164
187
167
201
216
54
100
123
109
169
192
116
176
199
109
165
192
117
172
198
116
171
197
118
173
199
107
162
188
106
162
187
111
166
192
101
153
184
107
157
190
112
164
195
109
160
188
106
157
185
114
169
197
99
151
181
106
159
189
100
155
181
120
176
203
99
156
182
166
193
211
145
170
186
43
90
116
43
85
115
48
90
120
31
63
83
58
94
124
99
145
180
98
141
174
101
147
177
174
199
219
52
92
116
111
161
188
104
157
182
104
157
179
164
195
209
137
164
178
50
97
123
50
95
123
54
102
129
26
62
81
64
107
131
105
161
186
107
163
188
107
164
189
106
164
189
105
161
188
115
171
195
98
154
180
110
169
195
109
163
189
118
168
195
113
167
193
73
122
146
81
130
154
74
120
150
73
112
145
74
113
146
77
120
151
74
121
146
71
120
142
73
121
147
117
169
189
47
89
111
74
119
139
62
111
133
78
125
149
79
128
152
75
122
148
81
128
152
78
127
151
75
125
152
82
129
155
67
108
139
86
132
163
106
156
190
101
151
185
112
164
193
98
150
180
109
161
191
101
153
180
102
158
185
104
160
186
95
149
175
167
197
214
134
159
175
42
87
115
55
98
128
50
94
122
25
58
79
53
89
119
97
145
180
101
146
186
108
157
190
174
198
217
63
105
130
107
164
190
100
153
184
105
157
182
173
204
218
134
159
175
48
96
123
47
94
120
43
91
116
25
59
74
52
92
116
103
157
183
108
164
191
106
162
188
106
160
186
107
163
187
105
161
187
107
161
187
102
156
182
98
151
176
133
172
192
66
112
135
30
68
91
36
76
97
29
68
88
32
70
93
38
73
97
28
61
87
39
75
94
40
79
99
38
83
102
38
81
99
34
73
91
36
75
93
36
73
91
28
65
85
34
71
89
31
67
86
32
69
89
33
72
92
23
61
84
31
66
88
22
49
72
51
88
118
92
142
175
96
145
178
101
152
186
103
154
188
107
154
187
110
163
193
105
160
188
102
158
184
103
159
183
166
195
213
145
169
184
46
90
118
46
89
119
50
94
122
26
54
80
53
91
121
101
144
182
96
147
181
107
157
189
168
193
213
58
102
127
109
165
192
105
160
190
108
163
189
180
212
227
142
168
181
54
100
129
48
96
121
47
93
117
25
57
74
59
99
126
108
163
189
115
172
198
94
147
172
107
160
185
109
166
194
114
169
195
110
166
191
99
155
182
101
157
184
165
196
210
135
161
174
46
94
118
53
103
126
46
96
121
44
92
119
46
91
119
42
84
114
45
95
118
54
105
129
52
105
127
57
111
132
53
106
128
47
100
120
63
114
136
51
104
124
48
99
120
58
106
130
51
99
123
50
96
120
56
100
126
47
87
115
32
63
81
54
96
120
98
148
181
97
145
178
99
145
180
99
149
182
96
146
180
102
157
185
108
164
189
109
165
192
117
172
198
170
197
215
140
164
179
49
90
122
46
87
119
48
90
120
17
46
72
54
87
118
98
143
179
97
140
176
105
153
188
168
195
215
59
104
126
103
156
187
103
158
187
111
167
192
172
202
219
139
166
180
50
95
123
43
91
115
48
96
120
31
65
86
71
113
136
110
166
191
100
156
180
107
163
187
117
173
200
125
177
202
121
173
198
112
169
191
113
166
192
114
167
193
166
198
213
142
169
183
55
103
128
48
98
123
52
101
125
46
95
119
48
95
121
47
92
120
47
94
120
59
110
134
53
106
126
48
101
123
50
103
123
57
108
130
49
102
122
52
105
125
65
115
137
56
105
127
56
105
129
52
100
127
56
104
131
46
94
119
24
57
78
70
111
137
106
157
185
110
154
190
107
154
189
102
147
182
105
155
187
107
159
188
103
156
186
110
165
195
106
161
187
174
201
219
139
161
176
43
89
118
44
89
117
41
83
113
22
51
74
55
91
123
106
157
189
103
156
187
109
165
192
174
206
221
58
101
125
99
154
184
104
161
187
106
161
187
174
205
219
132
157
169
37
78
105
43
91
116
55
102
128
27
62
81
60
100
125
94
147
178
115
171
196
126
177
202
131
183
205
121
172
197
108
163
187
110
165
191
109
160
188
111
164
190
173
202
218
145
169
184
44
91
117
52
97
125
52
100
125
49
102
124
52
102
127
43
89
118
43
85
115
51
101
126
53
106
128
56
109
131
46
96
119
53
102
125
49
99
122
50
104
127
63
116
138
56
105
129
58
108
130
57
105
132
45
90
118
44
91
117
30
62
82
67
110
134
110
163
193
101
151
183
94
138
174
113
163
196
108
157
190
102
157
185
106
161
189
114
169
195
113
166
192
174
204
221
140
162
177
50
95
123
46
92
121
48
91
121
31
65
86
65
105
133
100
153
183
105
160
188
108
165
193
174
205
219
54
95
124
101
155
183
103
161
186
99
155
181
172
201
217
142
166
177
40
84
112
53
101
128
55
100
128
19
51
74
57
97
126
103
153
185
108
158
189
123
167
197
123
170
199
108
159
187
119
174
202
110
160
191
101
151
183
104
159
188
163
190
208
139
164
180
42
90
117
55
105
130
53
101
128
56
106
131
52
102
127
56
101
129
50
91
122
50
95
123
47
97
122
50
100
123
50
100
120
53
103
126
57
110
130
52
105
127
58
107
131
44
97
119
47
95
120
48
95
121
49
96
122
50
97
123
23
57
78
57
98
127
90
139
175
95
144
177
103
157
190
103
154
186
102
152
185
99
148
181
101
158
186
103
158
188
108
164
191
180
212
227
142
167
183
43
85
115
47
93
119
48
93
121
23
57
78
54
97
122
111
164
195
113
169
195
109
166
192
167
197
214
49
89
115
97
148
180
107
160
185
108
164
185
172
201
215
134
160
173
42
92
117
43
91
116
44
94
117
28
62
83
51
94
121
104
159
188
110
161
195
111
161
190
115
168
198
96
151
182
104
157
188
100
154
182
95
147
176
107
158
187
162
189
207
136
163
177
56
106
131
45
93
118
47
95
122
45
93
118
37
82
110
42
84
114
39
80
111
50
94
120
53
100
121
41
90
113
51
105
128
50
103
125
55
106
128
54
105
127
47
100
122
52
105
127
52
102
125
58
108
133
48
95
121
44
89
117
28
61
82
58
98
125
101
151
184
107
160
190
106
162
192
106
158
188
99
154
183
105
154
190
102
154
189
100
154
186
102
156
184
157
188
202
144
170
183
48
92
118
44
87
114
43
91
116
18
53
72
57
98
127
108
160
190
101
155
183
99
155
181
163
193
210
56
96
120
99
153
175
92
146
168
105
156
180
170
200
217
136
163
177
49
100
122
52
100
125
52
100
125
24
59
78
62
105
129
117
170
198
107
157
188
108
161
191
105
161
187
102
156
182
102
156
184
96
149
180
114
166
198
113
165
194
169
196
216
137
164
178
50
102
125
55
105
128
59
112
134
45
91
120
50
91
120
43
82
106
47
88
110
50
92
116
46
91
114
44
93
116
50
103
125
51
104
126
53
106
128
49
99
122
52
105
127
45
96
118
60
111
135
64
113
139
44
91
117
52
100
127
33
69
88
69
112
136
113
167
196
99
154
184
100
153
183
99
151
183
105
159
191
100
152
182
95
141
176
104
153
183
101
150
179
162
191
207
141
167
178
42
91
114
50
95
123
49
99
122
25
58
79
55
98
123
101
154
185
111
164
194
108
163
193
170
200
217
49
89
116
106
162
186
102
157
186
109
162
192
179
211
224
144
171
185
54
102
129
52
105
125
51
102
128
34
69
88
62
105
129
112
166
195
114
168
195
113
169
196
105
160
189
104
156
183
97
148
180
100
150
182
104
156
187
109
162
190
175
204
222
136
161
177
46
95
118
46
94
118
48
97
120
44
89
112
41
81
105
40
82
104
41
87
111
44
92
117
53
107
128
46
97
121
53
103
126
51
101
124
44
95
121
57
107
132
48
96
123
50
96
122
53
101
128
48
95
121
54
100
126
50
98
123
29
65
84
57
101
126
111
168
196
106
162
192
105
159
192
104
154
188
106
161
191
111
163
195
92
137
171
102
151
181
99
149
178
164
191
209
143
169
182
46
94
119
38
81
111
44
92
117
18
51
72
55
98
123
112
168
194
106
161
189
111
167
194
172
204
219
60
92
123
104
148
183
117
161
191
118
165
194
183
209
225
137
161
176
47
93
119
40
87
113
50
96
122
28
59
80
52
92
118
105
154
185
112
165
196
111
164
195
98
154
180
98
152
180
100
153
180
101
152
184
99
152
183
97
153
179
167
194
212
138
163
175
46
93
114
52
99
120
45
96
117
50
98
122
46
90
116
46
93
119
47
95
120
52
105
125
54
103
127
49
102
124
46
96
119
52
102
125
53
103
128
42
92
117
50
100
125
44
94
119
42
90
115
44
91
117
51
96
124
48
95
121
21
56
75
62
106
131
111
166
194
107
157
191
95
143
178
106
153
186
98
151
182
98
150
180
100
142
185
95
143
178
93
141
174
160
186
203
140
164
177
52
99
125
39
81
111
46
90
118
20
54
75
62
102
131
111
159
194
96
148
183
109
163
190
167
197
216
53
88
120
97
144
177
104
151
185
109
154
188
174
201
219
138
162
177
57
103
129
47
94
120
54
102
129
20
55
74
59
99
123
96
146
175
94
147
174
94
145
172
96
149
174
98
153
183
103
159
189
101
156
182
107
162
190
110
165
193
164
191
209
141
166
178
49
94
115
50
96
120
45
94
117
51
99
126
39
86
112
59
107
134
54
103
127
49
100
122
48
102
123
50
98
123
44
97
119
53
104
126
53
104
126
49
102
122
49
97
122
43
91
118
47
95
122
43
90
116
51
99
124
44
94
119
27
62
81
61
101
130
108
158
192
99
148
184
102
154
184
104
155
182
96
139
175
89
132
168
98
141
179
96
146
177
97
147
176
172
202
219
141
165
180
50
97
123
52
98
124
50
91
123
27
55
81
54
95
124
105
158
188
115
168
198
113
164
192
170
202
217
62
102
130
106
159
190
103
158
188
109
164
194
173
203
220
151
175
188
101
140
158
99
138
158
106
145
163
47
90
115
60
105
127
69
119
143
67
115
138
76
120
147
74
122
145
75
123
150
72
120
147
82
129
155
82
128
153
79
126
150
110
160
186
141
166
180
51
99
124
47
97
122
51
99
124
51
99
124
54
100
129
60
109
132
53
102
126
53
104
126
52
102
125
44
94
117
58
107
131
52
101
123
54
105
127
47
98
120
55
106
130
47
95
120
49
99
124
47
95
122
53
101
126
41
87
113
30
60
84
55
93
121
72
118
148
74
121
146
75
123
146
70
113
139
66
100
137
64
105
138
65
111
139
73
119
147
69
116
142
117
165
191
151
174
186
102
140
159
101
139
158
87
122
146
36
80
103
55
96
123
100
157
185
105
162
190
117
171
198
174
203
219
54
95
124
106
161
191
110
167
195
104
156
185
177
206
224
68
112
137
30
70
91
35
75
94
36
76
97
28
62
83
90
144
164
146
190
210
137
180
202
140
185
205
145
188
210
139
182
203
137
178
202
137
182
202
140
187
205
135
179
198
174
202
215
140
166
179
53
101
126
55
106
130
60
111
133
64
115
137
54
103
127
50
99
123
53
101
126
45
93
118
41
89
113
48
96
121
50
99
123
51
100
124
47
95
120
51
101
126
43
93
118
54
104
127
50
100
125
47
95
122
50
97
123
41
86
114
23
52
72
81
129
158
134
176
197
132
170
190
133
174
192
139
176
198
131
168
194
134
175
199
146
188
208
139
180
203
145
185
207
178
204
219
75
119
144
34
75
95
33
71
96
29
67
90
16
49
71
50
92
119
110
167
195
105
160
190
108
163
191
174
205
219
57
98
127
105
157
187
107
159
194
106
159
189
170
200
217
141
166
178
48
95
116
49
95
119
52
100
124
25
60
79
53
95
120
113
170
194
116
171
199
112
168
195
110
166
193
110
167
195
109
167
192
114
169
195
112
168
193
113
169
193
171
201
218
137
164
178
55
105
127
47
95
120
47
95
120
48
96
121
47
95
122
50
98
123
43
91
118
51
98
124
43
89
115
53
101
128
46
94
119
46
96
121
52
99
125
43
92
115
41
89
114
57
104
130
39
87
114
49
97
124
43
88
116
44
88
116
23
56
77
61
103
130
103
157
185
109
165
187
111
168
194
111
163
194
99
148
180
125
179
202
111
166
192
115
170
196
112
168
193
174
204
221
142
167
183
47
94
120
43
91
118
48
96
120
21
56
75
52
92
119
105
158
188
107
163
190
112
170
195
169
204
218
58
98
125
99
152
183
110
165
193
100
153
184
172
200
215
138
164
177
43
91
115
47
96
119
45
93
118
22
57
76
64
106
131
105
161
185
105
162
189
114
172
197
106
162
189
107
163
187
95
150
178
109
161
190
108
160
187
110
164
191
180
210
227
140
165
181
50
98
123
50
98
125
57
105
132
53
101
128
50
98
123
46
94
121
54
100
126
41
84
111
50
95
123
40
86
115
56
104
131
42
89
115
49
94
122
48
95
121
44
91
117
47
95
122
49
95
121
51
96
124
43
86
113
45
84
115
21
52
73
53
91
119
108
157
186
113
168
196
116
170
199
117
167
196
105
158
190
105
160
186
113
170
196
106
162
188
111
160
189
166
193
211
144
169
183
43
91
118
51
101
126
52
99
125
29
62
83
58
98
127
112
165
191
118
173
199
112
169
197
178
210
225
58
102
127
104
161
189
113
169
196
110
166
192
179
211
226
148
175
189
39
87
112
50
103
125
54
107
129
25
61
80
61
104
128
100
154
180
104
160
184
110
165
193
98
153
182
100
152
182
100
155
183
106
159
189
115
170
198
111
164
194
175
206
220
140
165
181
49
96
122
46
91
119
50
96
122
45
89
115
43
87
113
54
99
122
47
92
115
49
95
119
54
102
129
48
96
121
48
96
123
38
85
111
51
94
124
44
88
116
41
85
113
41
84
114
46
87
119
45
87
117
43
82
113
40
80
108
27
56
79
51
91
117
106
163
189
106
162
187
106
164
187
103
162
188
105
161
185
100
152
177
110
159
188
108
159
186
106
161
190
178
210
225
137
161
176
47
97
122
39
87
112
51
96
119
30
59
79
56
96
125
114
165
195
115
168
198
108
163
191
174
201
219
61
107
132
106
161
189
100
154
180
105
162
187
172
206
219
143
169
182
48
96
121
49
100
124
54
108
129
29
65
84
55
100
122
104
158
184
116
172
199
115
168
194
116
169
195
105
158
188
104
156
187
108
159
194
107
157
189
104
156
188
167
197
216
140
165
181
52
100
127
47
94
120
46
92
118
40
87
113
54
100
126
48
97
120
48
98
123
56
104
129
51
102
126
47
97
120
50
98
123
49
96
122
50
96
122
51
98
124
51
98
124
50
98
125
48
95
121
48
93
121
45
89
117
47
94
120
23
53
77
58
98
126
112
164
195
114
167
197
107
160
188
114
170
197
110
167
195
103
159
186
110
165
193
105
155
186
103
155
186
177
207
224
137
164
178
52
102
127
49
97
121
48
95
116
17
48
69
52
92
119
106
156
187
99
146
181
97
145
180
169
196
216
64
107
131
105
161
188
106
162
187
103
156
186
170
202
219
140
167
181
49
103
124
57
105
130
52
106
127
24
60
79
59
103
128
114
170
197
123
175
200
131
183
205
119
171
196
111
163
192
107
159
190
101
148
183
98
150
182
99
151
183
166
198
215
137
161
176
52
99
125
55
102
128
52
100
125
43
91
116
50
95
123
57
106
129
60
109
132
48
97
123
54
105
129
48
98
121
45
91
115
45
89
115
41
88
109
48
96
120
48
96
120
57
106
129
45
93
118
56
106
131
50
99
122
44
92
116
19
52
73
48
88
114
93
141
176
108
157
190
100
155
185
107
162
190
111
167
194
112
167
193
105
158
188
105
156
190
103
155
187
174
201
219
132
157
173
51
98
124
46
90
118
48
89
116
28
56
82
59
96
124
108
160
192
101
154
185
101
149
182
169
198
216
58
103
125
113
168
198
115
171
196
113
168
194
171
202
216
142
169
183
52
105
125
55
108
128
48
99
121
27
61
82
55
97
122
110
165
191
109
159
188
115
166
196
111
164
194
114
169
197
105
157
188
103
150
183
100
152
183
104
162
187
161
191
208
139
166
180
49
95
124
54
101
127
41
88
114
53
100
126
50
98
123
45
96
118
44
97
119
46
99
121
50
98
123
44
92
117
56
105
128
49
97
124
43
92
115
44
92
114
48
95
116
43
88
111
45
93
117
47
93
117
44
89
112
52
99
120
24
57
78
60
100
124
99
145
175
96
143
170
88
129
163
94
140
170
98
147
177
111
164
195
97
150
181
108
161
193
107
160
190
170
201
220
138
163
179
35
82
108
37
81
109
41
80
111
20
47
72
55
89
121
104
150
185
98
148
181
99
148
181
168
198
217
57
101
126
97
153
178
118
174
199
114
172
197
174
206
221
141
166
182
49
97
124
49
102
124
50
101
123
22
57
76
60
101
128
106
159
189
106
156
187
101
156
184
107
163
188
110
164
191
104
157
187
107
162
190
96
149
182
100
156
182
169
201
216
130
155
171
49
96
122
45
88
115
40
81
108
48
94
118
46
96
121
51
101
126
48
102
123
41
91
116
40
91
117
52
104
127
47
97
122
49
101
126
51
102
126
59
110
134
55
105
130
44
94
119
44
92
116
53
100
121
46
95
118
54
107
129
28
64
83
50
92
119
96
147
171
95
147
171
97
142
169
97
140
171
101
144
180
98
151
182
95
148
179
93
143
175
96
148
180
171
200
218
136
162
173
46
93
119
49
92
122
41
83
113
32
61
81
47
85
115
100
145
181
97
148
180
99
154
183
175
207
222
47
89
113
96
144
170
94
146
170
97
150
172
168
196
209
145
170
182
54
104
127
43
93
118
38
88
111
28
61
82
47
83
113
92
143
175
109
162
192
105
160
190
102
159
185
110
166
193
109
165
190
117
173
200
104
159
189
105
162
186
170
202
217
146
172
185
47
94
120
50
94
122
43
89
118
52
100
127
52
100
125
52
100
125
54
104
127
50
103
125
54
107
129
53
106
128
53
104
126
47
98
122
60
111
133
46
97
119
50
101
123
50
99
123
54
102
127
54
105
127
51
102
124
49
98
122
34
70
89
64
107
131
113
165
192
106
158
187
108
161
191
105
159
187
105
154
187
102
154
186
102
157
188
96
149
180
100
152
179
167
193
210
142
167
181
39
85
111
43
90
116
40
84
112
29
62
83
62
99
127
102
155
186
107
160
190
114
169
197
177
209
224
61
99
125
106
161
190
111
167
194
114
169
193
169
201
214
135
161
174
46
98
119
46
95
118
43
91
115
19
50
71
52
90
116
103
159
185
107
165
188
104
162
187
113
171
196
109
166
194
114
171
199
107
161
188
107
160
188
113
168
194
176
208
223
140
165
181
53
100
126
49
93
124
53
100
126
49
97
122
42
92
117
48
96
123
41
89
114
43
93
116
42
90
115
44
91
117
53
100
126
54
104
129
41
91
116
48
98
121
47
97
122
58
106
131
45
98
120
47
98
120
50
98
125
53
101
128
19
54
73
65
105
130
114
163
193
111
163
192
112
162
193
106
155
187
118
167
197
99
146
181
109
159
193
109
161
191
95
149
182
167
197
214
139
165
178
45
88
115
44
88
114
50
96
125
22
57
76
61
104
130
114
167
193
107
162
188
112
168
195
169
202
214
62
105
129
102
155
183
115
166
191
131
183
208
185
213
227
144
170
183
47
95
122
37
85
109
43
86
111
26
57
78
56
98
122
99
155
185
120
174
201
110
163
193
111
166
192
114
167
199
105
157
189
113
166
197
113
168
196
107
165
190
168
202
217
148
172
185
95
131
152
94
132
151
98
136
155
90
128
147
91
129
146
97
135
152
90
128
147
93
129
148
99
133
154
94
129
147
89
126
148
94
132
151
90
127
149
92
131
149
97
135
154
96
135
153
98
137
155
98
136
155
83
118
136
90
125
143
33
75
96
79
126
152
111
161
190
100
147
179
109
158
187
102
157
187
107
151
187
103
150
185
101
149
185
104
155
189
104
157
188
176
208
223
139
168
180
49
97
122
43
91
115
45
92
118
24
58
79
69
109
136
116
167
195
115
170
196
106
161
189
169
201
216
65
108
132
114
168
197
110
162
193
107
163
190
168
200
215
133
158
174
51
98
124
46
94
121
54
100
126
24
57
78
47
88
115
107
160
190
118
168
199
112
165
195
102
154
185
107
161
193
100
155
184
100
153
184
109
164
192
103
161
186
145
184
205
162
196
217
136
174
201
130
171
195
146
190
209
143
187
206
143
186
207
136
179
201
134
175
199
142
183
207
132
174
195
178
206
221
82
131
160
139
182
206
134
177
201
135
177
198
146
187
211
143
186
208
136
181
201
134
173
195
133
172
194
136
174
194
95
143
173
88
135
159
97
144
167
89
135
167
101
155
188
107
154
186
109
158
190
97
147
180
100
147
179
92
133
168
98
149
176
165
196
210
146
173
187
57
105
130
53
100
126
53
100
126
27
61
82
58
102
127
103
153
187
98
148
181
103
151
186
160
190
209
58
102
127
111
166
192
112
165
193
112
163
193
179
209
226
147
171
186
43
91
116
44
92
119
44
92
117
24
58
79
59
102
126
110
166
191
111
166
192
118
173
197
99
156
182
106
161
190
101
156
185
105
162
190
103
158
188
110
167
195
102
158
184
106
158
189
106
156
188
103
155
186
107
164
190
107
163
189
114
169
197
106
163
190
103
158
187
109
162
192
115
170
196
169
201
216
56
102
125
103
161
186
107
163
188
105
162
188
103
160
188
96
151
180
95
145
174
104
153
176
95
143
169
100
153
178
101
157
183
105
161
188
104
159
185
114
167
195
121
167
197
117
161
191
111
159
188
107
161
188
108
163
191
106
158
188
104
153
184
168
197
215
140
167
181
56
105
129
44
92
117
45
92
118
22
57
76
61
101
128
104
156
186
96
146
175
105
158
189
177
206
224
53
95
122
111
163
188
123
173
202
110
163
191
166
198
213
134
159
175
47
91
119
46
91
119
50
96
125
22
55
76
56
99
125
113
168
196
108
163
189
101
155
183
112
167
195
106
159
190
105
158
189
104
160
186
97
152
181
103
159
184
101
154
186
99
151
186
101
151
185
97
149
179
103
156
186
102
157
186
100
154
182
97
153
179
107
161
189
108
163
193
114
171
199
170
202
217
56
99
123
110
170
193
110
165
193
109
165
192
111
167
193
105
157
182
100
148
176
96
147
174
94
146
171
106
163
189
109
165
190
115
167
192
120
170
194
123
171
195
127
173
201
121
169
200
105
158
184
114
169
195
119
168
195
132
180
206
113
162
189
172
200
215
141
168
182
55
103
128
43
93
118
49
96
122
27
62
79
59
105
128
109
165
191
97
151
179
113
169
194
169
201
218
45
82
115
106
153
186
103
154
189
104
156
188
164
191
211
139
162
178
49
92
122
50
95
123
47
89
119
29
57
83
54
90
122
99
144
184
108
160
192
94
149
180
107
158
187
105
157
186
108
161
188
99
152
183
99
152
183
95
148
180
108
160
191
104
157
188
98
148
182
106
156
187
102
152
186
108
163
193
110
165
194
110
162
192
99
155
181
107
161
189
107
159
189
171
202
216
59
102
126
108
165
193
114
171
197
105
161
185
105
161
185
101
156
179
95
145
171
104
156
181
103
159
184
110
166
191
129
184
206
112
168
193
116
168
193
117
170
196
100
150
181
104
157
187
113
169
196
115
171
196
118
171
197
110
165
189
102
155
185
169
198
216
141
168
182
49
97
122
46
94
121
46
93
119
18
53
72
57
100
124
100
152
182
98
152
180
110
166
193
175
207
222
56
98
125
106
163
191
108
160
190
102
151
184
171
200
216
137
161
174
44
91
117
51
96
124
48
92
120
13
39
62
52
85
118
91
133
174
98
148
181
101
154
185
108
161
192
99
154
185
107
159
191
101
153
185
96
151
181
106
161
191
108
160
191
99
153
185
90
142
177
95
148
180
103
152
185
105
158
191
105
158
188
103
156
187
106
159
189
104
159
189
108
163
193
171
202
216
59
102
129
109
166
191
100
156
182
99
148
179
96
147
174
95
147
171
112
165
187
113
166
196
109
161
188
121
173
198
129
182
205
118
173
197
116
171
195
116
172
197
107
162
192
115
170
200
104
159
187
108
166
191
116
173
201
115
173
198
105
159
187
164
196
213
132
158
173
45
92
118
50
98
123
45
93
118
30
63
84
62
102
131
108
159
194
103
152
185
102
151
183
172
204
219
51
92
121
101
156
185
107
163
187
106
162
188
167
197
214
145
170
186
47
95
122
43
91
118
40
88
113
18
49
70
52
90
120
106
148
191
98
150
185
103
158
188
110
160
191
116
168
197
116
165
195
101
148
181
107
157
190
97
152
182
103
155
187
104
157
187
99
154
183
107
158
193
108
160
192
100
150
184
106
157
189
95
144
174
109
158
189
99
150
185
105
157
189
165
192
212
51
84
115
91
137
172
95
147
176
96
149
174
95
143
171
93
136
167
90
139
175
118
167
199
120
165
194
121
163
193
120
170
194
121
176
200
119
174
200
102
157
183
104
156
188
98
150
184
105
160
188
111
168
196
115
170
196
108
166
191
108
165
191
163
193
212
143
169
182
41
89
116
51
99
124
49
95
121
30
62
82
61
101
128
110
164
193
103
159
184
107
162
188
173
203
220
64
106
131
114
171
197
110
166
191
106
162
189
179
211
226
140
165
181
50
97
123
47
94
120
44
90
116
22
53
74
61
99
129
100
149
182
111
163
194
113
163
194
111
163
194
100
152
184
96
146
178
108
162
195
99
145
182
107
157
190
99
148
184
104
153
184
98
146
176
107
160
191
108
161
191
107
159
190
100
148
181
92
141
170
100
150
179
99
149
182
102
150
183
161
183
206
54
90
122
93
136
174
99
143
177
88
136
169
92
142
175
105
157
186
118
170
195
118
168
192
119
172
195
116
167
192
105
150
185
112
169
197
109
166
192
110
163
193
106
158
190
101
153
185
101
156
186
107
162
192
108
166
193
111
169
192
111
167
192
170
202
219
146
173
187
48
96
120
46
92
118
42
86
112
22
55
76
58
97
125
120
170
197
109
162
192
101
157
183
162
191
207
57
98
122
106
162
187
111
166
190
114
167
195
174
204
221
132
158
171
48
92
120
44
88
116
43
84
111
27
58
79
51
85
117
97
143
180
102
153
189
110
160
191
107
162
191
97
150
180
108
157
188
101
149
184
101
151
184
109
159
192
101
152
184
107
156
185
108
161
192
98
151
183
103
157
186
110
165
191
106
157
189
100
150
183
95
146
178
86
136
167
105
153
188
175
204
222
54
93
121
99
152
185
104
154
185
105
157
188
116
165
193
123
171
197
124
173
200
120
172
197
117
173
198
118
172
201
112
163
192
91
136
170
98
150
180
104
156
186
104
154
188
102
155
188
104
161
189
107
163
188
104
162
187
113
171
196
102
159
187
170
200
217
138
164
177
46
94
119
49
96
122
40
86
112
25
58
79
54
94
121
114
166
191
115
168
198
108
165
191
164
191
209
63
104
128
113
169
194
107
162
188
107
159
190
174
204
223
134
157
173
46
87
116
45
83
113
48
87
120
30
57
82
52
88
120
104
156
187
111
165
192
102
152
186
88
129
167
97
140
178
100
147
182
103
153
187
105
157
188
102
154
186
110
165
189
115
170
200
108
160
191
113
163
196
102
157
185
106
161
189
94
144
173
109
159
191
97
146
179
107
156
189
104
152
188
169
196
214
59
99
128
98
148
180
111
166
197
116
168
195
114
163
193
112
161
191
109
159
190
109
165
192
104
162
187
110
168
193
108
161
191
111
163
194
104
154
185
105
157
188
100
152
186
103
158
188
104
159
187
107
160
190
113
169
194
105
160
188
107
164
192
172
204
219
137
164
178
47
95
120
41
91
116
40
88
115
21
55
76
55
94
122
119
170
195
117
170
200
105
160
189
166
195
213
54
96
123
113
170
196
112
164
193
101
147
185
170
193
217
130
153
169
48
89
118
34
77
104
38
85
111
24
57
78
52
93
119
109
164
190
105
159
188
106
161
189
109
163
191
102
158
184
108
164
189
100
152
182
105
158
190
115
168
198
116
168
197
110
160
193
113
162
192
108
161
191
101
155
183
96
141
175
97
146
176
95
149
182
101
153
187
94
144
177
109
156
189
176
203
221
52
92
118
100
152
181
108
158
192
111
163
192
108
157
189
117
169
198
116
172
197
109
167
192
111
169
192
108
167
193
112
167
195
104
156
187
108
161
191
102
155
185
100
152
184
103
156
186
113
167
196
114
170
195
105
160
188
100
154
182
106
160
186
170
201
215
144
169
183
50
97
118
50
96
120
40
84
112
22
57
76
52
92
117
108
160
187
108
161
191
111
164
195
178
208
225
60
102
126
99
152
183
97
149
184
106
149
188
164
191
211
144
166
181
45
90
118
49
93
121
47
94
120
37
74
94
52
94
117
74
122
149
77
124
150
78
125
149
84
131
157
90
137
163
76
123
149
76
123
148
74
122
148
73
122
149
70
114
144
71
117
145
64
107
138
73
116
145
69
111
140
64
107
136
70
113
142
74
119
147
76
121
149
81
125
155
74
120
150
120
170
194
54
94
120
76
123
148
88
135
161
79
122
152
77
120
150
84
129
157
86
133
159
80
127
155
73
120
146
80
129
153
74
121
147
81
128
154
67
108
139
72
116
146
72
118
148
87
132
160
73
121
149
69
115
143
70
117
142
75
120
142
71
114
140
109
156
182
96
132
149
47
94
120
51
101
124
54
102
129
30
64
85
55
97
120
110
162
189
106
163
189
97
147
181
170
199
217
58
96
124
101
152
181
100
148
183
108
148
187
164
187
211
133
156
172
43
88
116
42
90
114
50
98
123
38
80
102
28
68
89
33
71
94
29
70
92
24
67
85
41
82
102
34
75
95
41
83
104
31
74
92
33
71
94
36
74
97
41
78
100
25
60
82
30
63
82
30
63
84
29
67
90
33
71
94
32
73
93
34
72
95
36
72
97
30
68
91
33
74
94
26
61
80
63
108
130
41
83
104
43
82
101
36
74
97
30
66
91
29
67
90
33
76
94
28
69
91
42
84
105
33
75
96
43
85
106
35
78
99
36
77
99
38
76
99
36
72
97
29
67
90
30
70
91
26
64
87
36
71
93
29
64
86
38
73
97
44
87
114
54
102
125
52
101
125
65
115
137
57
106
130
22
54
77
65
104
132
108
159
187
101
158
186
109
164
194
164
191
211
67
107
136
114
163
194
96
141
178
109
154
189
176
205
223
138
164
177
47
95
122
53
101
128
53
103
128
59
111
134
43
91
115
44
92
116
57
105
130
54
102
127
47
97
122
44
94
119
43
93
116
46
95
118
52
100
127
49
97
124
55
102
128
50
94
120
52
96
122
43
86
116
43
89
118
52
99
125
49
100
122
54
101
127
55
102
128
50
100
125
47
97
122
33
68
87
134
161
175
50
99
123
43
92
115
61
108
134
41
87
116
45
91
120
54
102
129
47
95
120
48
98
123
50
100
123
54
102
127
53
103
128
50
101
123
52
100
127
54
99
127
54
100
129
48
95
121
48
92
120
44
88
114
42
90
114
45
93
118
47
95
122
48
95
121
55
105
127
46
99
121
50
101
123
26
60
81
55
95
124
106
159
189
102
157
186
103
160
188
177
207
224
51
84
116
98
140
178
97
142
179
100
150
184
167
197
214
134
159
175
56
106
131
49
100
122
54
102
127
43
93
118
43
92
115
53
103
126
45
95
118
43
93
118
57
106
129
40
90
115
50
98
123
43
91
116
47
95
122
51
96
124
55
103
128
50
97
123
56
102
128
56
98
128
53
100
126
43
91
116
57
105
130
48
95
121
54
102
127
52
103
129
53
101
126
27
63
82
140
166
179
50
99
123
53
101
126
46
93
119
42
90
117
45
90
118
43
88
116
50
97
123
47
97
120
47
95
120
49
97
122
50
100
125
61
109
134
40
87
113
45
93
120
46
91
119
41
87
113
45
92
118
43
91
115
43
91
115
39
88
111
46
96
121
47
92
120
50
98
125
44
94
117
47
97
120
22
57
76
53
91
119
102
157
187
101
156
186
100
155
185
165
193
214
60
97
125
107
159
190
106
158
187
115
170
196
172
204
221
141
170
182
48
98
121
55
103
130
51
99
126
52
102
125
46
96
121
49
99
124
55
103
128
53
103
126
49
99
124
52
99
125
52
100
125
51
99
126
52
99
125
54
102
129
47
93
122
42
87
115
45
89
117
49
94
122
50
97
123
59
112
134
54
104
129
53
99
128
38
84
110
42
92
115
47
97
122
23
58
77
135
163
174
58
107
131
45
93
118
50
96
125
40
86
112
45
91
120
50
95
123
50
100
125
53
101
126
50
100
123
42
92
117
46
96
121
39
87
114
52
95
125
51
99
123
53
100
126
42
88
114
46
94
118
52
97
120
49
92
119
45
89
117
52
100
125
49
97
124
56
104
131
56
106
131
45
93
118
23
56
77
54
95
124
100
153
183
108
161
191
103
156
188
177
206
224
56
96
125
106
159
189
110
165
191
108
163
191
160
192
209
151
175
188
96
133
155
100
138
157
91
128
150
94
130
151
94
133
151
97
135
152
92
131
149
94
132
151
94
132
151
93
132
150
94
135
153
95
133
152
92
130
149
93
131
148
86
121
145
87
123
144
89
124
148
88
122
143
95
131
152
106
145
163
96
135
155
90
128
147
92
127
145
97
133
150
96
134
153
32
75
97
149
173
186
102
138
157
92
128
149
88
124
143
94
128
149
88
122
143
93
129
148
92
127
145
98
136
153
96
134
153
96
135
153
96
133
155
94
130
151
93
130
152
93
131
150
96
133
155
87
121
142
98
133
151
89
121
139
85
116
138
94
130
149
99
137
156
106
144
163
99
137
156
101
139
158
89
124
142
39
82
106
84
132
159
106
161
187
110
163
191
113
165
196
167
196
214
48
89
118
99
153
181
99
150
177
102
155
182
143
181
201
150
184
205
145
188
210
145
190
210
133
175
196
130
172
191
134
178
197
143
188
208
142
184
204
140
184
203
146
191
209
138
181
202
138
181
203
136
180
199
148
190
210
138
181
203
141
184
206
139
180
204
141
181
206
135
175
200
144
185
209
144
189
210
143
186
207
147
192
212
142
185
207
136
181
201
146
187
206
143
187
207
137
181
199
143
183
206
135
178
202
139
179
204
135
176
202
135
175
200
137
180
204
143
186
210
135
176
202
142
183
207
136
175
197
145
184
206
139
179
202
131
174
198
138
182
201
136
176
199
140
179
201
143
184
202
145
182
206
135
176
200
141
185
204
142
183
207
144
186
206
151
194
213
142
187
207
134
176
197
103
158
187
106
161
189
109
162
188
110
163
195
99
151
181
172
199
217
62
102
129
113
169
196
110
167
193
114
170
195
110
167
195
115
170
200
118
171
197
108
165
191
97
153
179
97
153
179
110
168
195
108
164
188
106
162
187
102
158
183
110
166
191
108
163
191
106
163
191
103
153
186
111
163
194
106
156
190
102
150
186
103
153
185
104
159
189
108
158
190
113
169
195
107
163
188
110
165
193
111
167
194
103
159
184
115
173
198
112
167
191
112
166
195
96
149
180
107
161
189
99
150
179
102
149
182
102
152
186
109
159
191
102
155
185
116
171
197
112
166
193
104
159
188
103
157
185
102
152
181
97
145
178
104
156
186
97
153
179
95
151
177
102
156
184
99
156
182
108
163
189
112
161
191
114
164
195
120
169
197
105
156
184
111
166
192
109
167
192
100
156
180
103
160
185
116
172
199
107
161
188
101
151
184
95
145
177
163
190
208
62
103
129
117
169
194
123
173
197
120
173
196
115
168
194
108
165
193
105
160
186
104
160
186
108
164
190
105
162
188
109
167
192
103
159
185
105
161
187
111
167
194
107
162
188
102
157
187
112
162
196
104
154
187
105
155
188
97
149
179
105
158
188
107
164
190
104
161
189
100
153
184
109
163
189
109
166
192
109
164
194
108
162
188
111
167
191
107
163
189
104
156
188
108
161
188
85
130
159
104
154
183
113
165
196
112
161
192
100
148
184
95
144
180
93
143
177
107
164
190
107
164
190
100
155
184
109
161
193
106
161
189
110
163
193
115
168
198
115
174
200
102
157
185
112
169
197
112
167
195
111
166
192
108
164
191
109
162
192
121
172
200
114
163
193
109
159
192
105
162
190
103
158
186
109
166
194
107
161
190
102
152
185
117
167
200
99
152
183
166
195
213
58
99
125
111
162
192
124
177
203
121
176
202
110
166
193
102
159
187
103
158
184
104
160
186
107
164
189
107
163
188
115
171
198
111
167
191
111
168
194
112
165
191
106
158
187
101
153
187
99
152
184
107
159
190
112
167
197
107
164
190
100
156
182
112
168
192
100
156
180
102
158
182
90
144
172
115
172
197
95
146
175
101
156
179
111
168
193
101
156
185
101
154
181
99
149
180
98
143
174
102
152
185
110
159
189
109
154
189
110
157
192
110
155
190
104
151
184
109
164
192
103
160
185
100
157
184
100
153
184
103
158
188
101
151
184
110
163
193
101
154
184
105
161
186
107
164
190
105
161
186
103
156
183
101
157
183
104
162
185
117
172
196
107
157
190
108
163
191
101
153
183
108
157
188
105
153
189
111
161
192
105
157
188
107
163
188
109
163
189
171
200
218
62
104
129
70
119
146
71
118
144
82
129
153
81
127
152
73
122
146
76
124
151
85
132
156
72
121
145
81
129
156
81
131
156
80
128
154
82
130
157
75
122
148
72
118
148
73
114
144
72
117
144
67
111
143
72
120
146
71
119
143
71
119
142
71
119
142
72
120
143
70
118
144
79
123
150
73
117
142
75
117
146
69
118
142
81
128
154
68
113
140
74
114
141
60
98
123
70
108
133
70
113
139
69
112
143
71
114
145
68
112
142
80
121
152
75
119
149
69
112
143
74
122
145
77
124
148
79
126
152
75
122
148
81
128
154
75
119
149
75
116
147
67
110
139
71
116
143
70
115
142
72
117
144
68
113
140
77
124
150
77
124
152
73
116
146
78
125
151
77
126
150
70
116
144
70
114
144
66
114
142
67
113
141
69
117
140
66
114
138
116
167
192
